<svg width="42" height="42" viewBox="0 0 42 42" fill="black" xmlns="http://www.w3.org/2000/svg">
<path d="M4.04244 19.6753C3.9778 19.4172 3.97284 19.1478 4.02793 18.8876C4.08301 18.6273 4.19671 18.3831 4.36036 18.1734C4.52401 17.9637 4.73332 17.794 4.97237 17.6773C5.21143 17.5607 5.47393 17.5 5.73994 17.5H36.2599C36.5258 17.5001 36.7881 17.5607 37.027 17.6773C37.2659 17.7939 37.4751 17.9633 37.6387 18.1728C37.8023 18.3823 37.916 18.6264 37.9713 18.8864C38.0265 19.1464 38.0218 19.4156 37.9574 19.6735L34.7882 32.3488C34.5989 33.1059 34.162 33.7781 33.5469 34.2585C32.9317 34.7389 32.1737 34.9999 31.3932 35H10.6067C9.82621 34.9999 9.06816 34.7389 8.45302 34.2585C7.83789 33.7781 7.40096 33.1059 7.21169 32.3488L4.04244 19.6753Z" stroke="white" stroke-width="2" stroke-linejoin="round"/>
<path d="M15.75 24.5V28M26.25 24.5V28M10.5 17.5L17.5 7M31.5 17.5L24.5 7" stroke="white" stroke-width="2" stroke-linecap="round"/>
</svg>
