<svg width="32" height="32" viewBox="0 0 32 32" fill="none" xmlns="http://www.w3.org/2000/svg">
<path d="M25.4 6.54667C24.1776 5.31191 22.7216 4.3329 21.1169 3.66674C19.5121 3.00059 17.7908 2.66062 16.0533 2.66667C8.77334 2.66667 2.84 8.60001 2.84 15.88C2.84 18.2133 3.45334 20.48 4.6 22.48L2.73334 29.3333L9.73334 27.4933C11.6667 28.5467 13.84 29.1067 16.0533 29.1067C23.3333 29.1067 29.2667 23.1733 29.2667 15.8933C29.2667 12.36 27.8933 9.04001 25.4 6.54667ZM16.0533 26.8667C14.08 26.8667 12.1467 26.3333 10.4533 25.3333L10.0533 25.0933L5.89334 26.1867L7 22.1333L6.73334 21.72C5.637 19.9693 5.05486 17.9457 5.05334 15.88C5.05334 9.82667 9.98667 4.89334 16.04 4.89334C18.9733 4.89334 21.7333 6.04001 23.8 8.12001C24.8233 9.13863 25.6343 10.3502 26.1859 11.6846C26.7375 13.0189 27.0187 14.4495 27.0133 15.8933C27.04 21.9467 22.1067 26.8667 16.0533 26.8667ZM22.08 18.6533C21.7467 18.4933 20.12 17.6933 19.8267 17.5733C19.52 17.4667 19.3067 17.4133 19.08 17.7333C18.8533 18.0667 18.2267 18.8133 18.04 19.0267C17.8533 19.2533 17.6533 19.28 17.32 19.1067C16.9867 18.9467 15.92 18.5867 14.6667 17.4667C13.68 16.5867 13.0267 15.5067 12.8267 15.1733C12.64 14.84 12.8 14.6667 12.9733 14.4933C13.12 14.3467 13.3067 14.1067 13.4667 13.92C13.6267 13.7333 13.6933 13.5867 13.8 13.3733C13.9067 13.1467 13.8533 12.96 13.7733 12.8C13.6933 12.64 13.0267 11.0133 12.76 10.3467C12.4933 9.70668 12.2133 9.78667 12.0133 9.77334H11.3733C11.1467 9.77334 10.8 9.85334 10.4933 10.1867C10.2 10.52 9.34667 11.32 9.34667 12.9467C9.34667 14.5733 10.5333 16.1467 10.6933 16.36C10.8533 16.5867 13.0267 19.92 16.3333 21.3467C17.12 21.6933 17.7333 21.8933 18.2133 22.04C19 22.2933 19.72 22.2533 20.2933 22.1733C20.9333 22.08 22.2533 21.3733 22.52 20.6C22.8 19.8267 22.8 19.1733 22.7067 19.0267C22.6133 18.88 22.4133 18.8133 22.08 18.6533Z" fill="white"/>
</svg>
